<svg width="22" height="22" viewBox="0 0 22 22" fill="none" xmlns="http://www.w3.org/2000/svg">
<path d="M17.0466 10.8499L12.872 15.0244C11.8393 16.0572 10.1649 16.0572 9.13176 15.0244L7.83944 13.7321L4.95719 10.8495C4.4101 10.3024 4.4101 9.41563 4.95719 8.86894L6.13832 7.68742C6.68541 7.14033 7.57216 7.14033 8.11926 7.68742L11.0019 10.5701L13.8841 7.68742C14.4308 7.14033 15.318 7.14033 15.8651 7.68742L17.0466 8.86894C17.5933 9.41603 17.5933 10.3028 17.0466 10.8499Z" stroke="black" stroke-miterlimit="10" stroke-linecap="round" stroke-linejoin="round"/>
<path d="M11 21C16.5229 21 21 16.5229 21 11C21 5.47716 16.5229 1 11 1C5.47716 1 1 5.47716 1 11C1 16.5229 5.47716 21 11 21Z" stroke="black" stroke-miterlimit="10" stroke-linecap="round" stroke-linejoin="round"/>
</svg>
