<svg width="12" height="14" viewBox="0 0 12 14" fill="none" xmlns="http://www.w3.org/2000/svg">
<path d="M0.840654 10.8713C0.85238 10.9513 0.864092 11.0314 0.875818 11.1114C0.955879 11.2946 1.0218 11.4855 1.11803 11.6597C1.54624 12.4329 2.19321 12.9039 3.07469 13.0301C3.25058 13.0556 3.43091 13.0479 3.60923 13.0556C3.74752 13.0358 3.88582 13.0155 4.02411 12.9957C4.18868 12.9444 4.35526 12.8995 4.51659 12.8413C5.32812 12.5485 6.01391 12.0552 6.65197 11.4891C7.4166 10.8106 8.07934 10.0391 8.69436 9.22556C9.44726 8.22924 10.1298 7.18965 10.6235 6.03644C10.8981 5.39595 11.1055 4.73564 11.1585 4.03571C11.1738 3.83192 11.169 3.62651 11.1738 3.42191C11.1536 3.28362 11.1338 3.14534 11.1136 3.00705C11.1019 2.97672 11.0877 2.9468 11.0792 2.91566C10.8067 1.90398 10.1419 1.29058 9.14398 1.02856C8.92725 0.971549 8.69718 0.966697 8.47317 0.937988C8.39311 0.949714 8.31305 0.961031 8.23299 0.972757C7.89899 1.09972 7.76516 1.38074 7.69278 1.69856C7.54802 2.33137 7.41093 2.9658 7.27467 3.60063C7.25405 3.69646 7.2484 3.79715 7.24718 3.89541C7.24274 4.19948 7.38507 4.40529 7.67175 4.5084C7.87191 4.58037 8.07368 4.64911 8.27747 4.71098C8.47439 4.77042 8.58397 4.90669 8.63047 5.09713C8.69314 5.35188 8.68505 5.60338 8.59933 5.8557C8.11128 7.28629 7.26537 8.47144 6.12551 9.45078C5.89341 9.65012 5.631 9.81753 5.36776 9.97442C5.19996 10.0739 4.99858 10.0949 4.80045 10.0747C4.65893 10.0601 4.54289 9.99746 4.4604 9.87656C4.3484 9.7128 4.23234 9.55228 4.11953 9.38932C3.89107 9.05897 3.62501 8.97284 3.25179 9.13175C3.05002 9.21787 2.85916 9.32988 2.66588 9.43501C2.30196 9.63314 1.93926 9.8337 1.57737 10.0355C1.48437 10.0868 1.3934 10.1426 1.30485 10.2013C1.06143 10.3626 0.866128 10.5583 0.840654 10.8713Z" stroke="black" stroke-miterlimit="10"/>
</svg>
