<svg width="22" height="22" viewBox="0 0 22 22" fill="none" xmlns="http://www.w3.org/2000/svg">
<path d="M11 1C16.523 1 21 5.47698 21 11C21 16.5226 16.523 21 11 21C5.47738 21 1 16.5226 1 11C1 5.47698 5.47738 1 11 1ZM5.24165 13.7455C4.72045 14.2668 4.72045 15.1118 5.24165 15.6326L6.36695 16.7584C6.88815 17.2792 7.73326 17.2792 8.25407 16.7584L11 14.0124L13.746 16.7584C14.2672 17.2792 15.1118 17.2792 15.6331 16.7584L16.7584 15.6326C17.2796 15.1118 17.2796 14.2668 16.7584 13.7455L14.0124 11L16.7584 8.25405C17.2796 7.73284 17.2796 6.88816 16.7584 6.36695L15.6331 5.24164C15.1118 4.72043 14.2672 4.72043 13.746 5.24164L11 7.98759L8.25407 5.24164C7.73326 4.72043 6.88815 4.72043 6.36695 5.24164L5.24165 6.36695C4.72045 6.88816 4.72045 7.73284 5.24165 8.25405L7.98759 11L5.24165 13.7455Z" stroke="black" stroke-miterlimit="10"/>
<path d="M5.2418 13.7455C4.72059 14.2667 4.72059 15.1118 5.2418 15.6326L6.36709 16.7583C6.8883 17.2791 7.73341 17.2791 8.25421 16.7583L11.0001 14.0124L13.7461 16.7583C14.2673 17.2791 15.112 17.2791 15.6332 16.7583L16.7585 15.6326C17.2797 15.1118 17.2797 14.2667 16.7585 13.7455L14.0126 11L16.7585 8.25403C17.2797 7.73282 17.2797 6.88813 16.7585 6.36693L15.6332 5.24161C15.112 4.72041 14.2673 4.72041 13.7461 5.24161L11.0001 7.98757L8.25421 5.24161C7.73341 4.72041 6.8883 4.72041 6.36709 5.24161L5.2418 6.36693C4.72059 6.88813 4.72059 7.73282 5.2418 8.25403L7.98773 11L5.2418 13.7455Z" stroke="black" stroke-miterlimit="10"/>
</svg>
