<svg width="20" height="20" viewBox="0 0 20 20" fill="none" xmlns="http://www.w3.org/2000/svg">
<path d="M1.24124 10.6113C1.11674 10.4265 1.05448 10.334 1.01963 10.1915C0.993456 10.0844 0.993456 9.91557 1.01963 9.8085C1.05448 9.66596 1.11674 9.57354 1.24124 9.3887C2.27015 7.86129 5.33276 4 10 4C14.6672 4 17.7299 7.86129 18.7588 9.3887C18.8833 9.57354 18.9455 9.66596 18.9804 9.8085C19.0065 9.91557 19.0065 10.0844 18.9804 10.1915C18.9455 10.334 18.8833 10.4265 18.7588 10.6113C17.7299 12.1387 14.6672 16 10 16C5.33276 16 2.27015 12.1387 1.24124 10.6113Z" stroke="black" stroke-linecap="round" stroke-linejoin="round"/>
<path d="M10 12.5714C11.5148 12.5714 12.7427 11.4202 12.7427 10C12.7427 8.57984 11.5148 7.42857 10 7.42857C8.48522 7.42857 7.25726 8.57984 7.25726 10C7.25726 11.4202 8.48522 12.5714 10 12.5714Z" stroke="black" stroke-linecap="round" stroke-linejoin="round"/>
<circle cx="10.5" cy="9.5" r="1.5" fill="black"/>
</svg>
