<svg width="21" height="22" viewBox="0 0 21 22" fill="none" xmlns="http://www.w3.org/2000/svg">
<path d="M14.4077 8.26887C14.3333 7.99593 14.1089 7.84956 13.8145 7.92437C13.3111 8.05255 12.8118 8.19851 12.3152 8.35095C12.0924 8.41929 11.9699 8.60853 11.9707 8.81636C11.9719 9.14712 12.255 9.36668 12.6088 9.27773C13.1009 9.154 13.5881 9.01086 14.0721 8.85882C14.3552 8.76986 14.4785 8.52765 14.4077 8.26887Z" stroke="black" stroke-miterlimit="10"/>
<path d="M10.5 0.947266C4.97738 0.947266 0.5 5.42424 0.5 10.9473C0.5 16.4699 4.97738 20.9473 10.5 20.9473C16.023 20.9473 20.5 16.4699 20.5 10.9473C20.5 5.42424 16.023 0.947266 10.5 0.947266ZM13.8153 7.92434C14.1096 7.84954 14.3341 7.99591 14.4085 8.26884C14.4792 8.52763 14.3559 8.76984 14.0728 8.8588C13.5888 9.01083 13.1016 9.15397 12.6095 9.2777C12.2557 9.36666 11.9727 9.1471 11.9714 8.81634C11.9706 8.6085 12.0931 8.41926 12.3159 8.35093C12.8125 8.19849 13.3118 8.05252 13.8153 7.92434ZM10.5732 6.72463C10.8202 6.27216 11.0734 5.82252 11.3281 5.3741C11.4417 5.17354 11.6083 5.09955 11.8259 5.13836C12.0341 5.17516 12.2047 5.33124 12.2278 5.53705C12.2379 5.62965 12.2201 5.74004 12.1764 5.82131C11.9249 6.29036 11.6661 6.75577 11.4001 7.21632C11.318 7.35825 11.191 7.46096 11.0099 7.45934C10.6181 7.45368 10.3852 7.06792 10.5732 6.72463ZM5.0263 7.17104C5.15407 6.94379 5.42257 6.852 5.67044 6.98261C6.14191 7.23088 6.6065 7.4933 7.06908 7.75815C7.21343 7.84104 7.29106 7.97771 7.28257 8.14107C7.27974 8.37479 7.15724 8.58424 6.94495 8.636C6.82931 8.6643 6.67565 8.63397 6.56688 8.57736C6.10471 8.33718 5.6486 8.08527 5.19977 7.82163C4.96322 7.68294 4.90014 7.39545 5.0263 7.17104ZM5.15852 11.3945C4.86213 11.4604 4.64137 11.3128 4.57182 11.0391C4.50631 10.7799 4.63691 10.5457 4.92116 10.456C5.29923 10.3367 5.68215 10.2336 6.06346 10.1256C6.21387 10.0828 6.36592 10.0464 6.45043 10.0245C6.76057 10.0237 6.94535 10.1604 6.99994 10.3787C7.05695 10.608 6.97082 10.8288 6.74842 10.9287C6.55797 11.014 6.35177 11.0657 6.1496 11.124C5.82046 11.219 5.49252 11.3201 5.15852 11.3945ZM8.42407 12.5719C8.17337 13.0325 7.91782 13.491 7.66025 13.9475C7.54541 14.1509 7.33352 14.2318 7.1079 14.172C6.9037 14.1178 6.75611 13.9184 6.74317 13.6944C6.76784 13.6212 6.78279 13.5424 6.81918 13.4757C7.06948 13.0196 7.3222 12.5647 7.57896 12.1118C7.70754 11.8858 8.00312 11.8057 8.22592 11.9266C8.47015 12.0588 8.5571 12.3273 8.42407 12.5719ZM8.19844 6.86171C8.04196 6.34939 7.89071 5.83506 7.75768 5.31628C7.68652 5.03768 7.84381 4.80316 8.10543 4.73523C8.3537 4.67093 8.6044 4.80639 8.68567 5.07367C8.83528 5.56657 8.97843 6.0619 9.10904 6.56006C9.19961 6.90497 8.9764 7.17791 8.62865 7.17508C8.43174 7.17346 8.26071 7.0659 8.19844 6.86171ZM16.1395 12.8954C15.5139 13.0802 14.888 13.2638 14.2625 13.4494C14.1885 13.4712 14.1165 13.4999 14.0267 13.5311C14.2006 13.7357 15.8293 15.368 16.0958 15.7004C16.3259 15.9871 16.3817 16.3231 16.2115 16.6523C16.0412 16.9814 15.7206 17.182 15.3453 17.1678C15.0736 17.1577 14.8168 17.015 14.643 16.8095C14.2479 16.3417 13.1707 15.2423 12.7741 14.7757C12.7482 14.7449 12.7195 14.7166 12.6811 14.675C12.6414 14.747 12.605 14.8064 12.5751 14.8687C12.286 15.4631 11.9981 16.0579 11.7094 16.6527C11.5994 16.8795 11.4094 16.9527 11.1757 16.8577C10.9727 16.7752 10.855 16.6191 10.7968 16.4121C10.555 15.5492 10.3132 14.6867 10.0706 13.8242C9.69695 12.4971 9.32293 11.1697 8.94769 9.84298C8.89594 9.66022 8.86885 9.47907 8.92909 9.29468C9.02816 8.99223 9.31485 8.85637 9.66502 8.97808C9.92542 9.06825 10.1729 9.19643 10.4232 9.31369C12.2897 10.1883 14.1553 11.0649 16.0222 11.9387C16.2244 12.0334 16.3744 12.1664 16.4282 12.3904C16.4884 12.6419 16.3857 12.8226 16.1395 12.8954Z" stroke="black" stroke-miterlimit="10"/>
<path d="M14.2623 13.4493C14.1883 13.4712 14.1163 13.4999 14.0266 13.531C14.2004 13.7356 15.8292 15.368 16.0956 15.7003C16.3257 15.987 16.3815 16.323 16.2113 16.6522C16.041 16.9813 15.7204 17.1819 15.3452 17.1677C15.0734 17.1576 14.8167 17.0149 14.6428 16.8095C14.2478 16.3416 13.1706 15.2422 12.7739 14.7756C12.748 14.7449 12.7193 14.7166 12.6809 14.6749C12.6413 14.7469 12.6049 14.8063 12.5749 14.8686C12.2858 15.463 11.998 16.0578 11.7092 16.6526C11.5993 16.8794 11.4092 16.9526 11.1755 16.8576C10.9725 16.7751 10.8548 16.619 10.7966 16.412C10.5548 15.5491 10.313 14.6866 10.0704 13.8242C9.69678 12.4971 9.32276 11.1696 8.94752 9.84292C8.89576 9.66015 8.86867 9.479 8.92892 9.29461C9.02799 8.99216 9.31468 8.8563 9.66485 8.97801C9.92525 9.06818 10.1727 9.19636 10.423 9.31362C12.2895 10.1882 14.1552 11.0649 16.022 11.9387C16.2242 12.0333 16.3742 12.1663 16.428 12.3903C16.4883 12.6418 16.3855 12.8226 16.1393 12.8954C15.5138 13.0801 14.8878 13.2637 14.2623 13.4493Z" stroke="black" stroke-miterlimit="10"/>
<path d="M14.0721 8.85882C13.5881 9.01086 13.1009 9.154 12.6088 9.27773C12.255 9.36668 11.9719 9.14712 11.9707 8.81636C11.9699 8.60853 12.0924 8.41929 12.3152 8.35095C12.8118 8.19851 13.3111 8.05255 13.8145 7.92437C14.1089 7.84956 14.3333 7.99593 14.4077 8.26887C14.4785 8.52765 14.3552 8.76986 14.0721 8.85882Z" fill="#D9D9D9" stroke="black" stroke-width="0.5" stroke-miterlimit="10"/>
<path d="M6.74888 10.9287C6.55843 11.014 6.35223 11.0657 6.15006 11.124C5.82091 11.219 5.49298 11.3201 5.15898 11.3945C4.86259 11.4604 4.64183 11.3128 4.57228 11.0391C4.50677 10.7799 4.63736 10.5457 4.92162 10.456C5.29969 10.3367 5.68261 10.2336 6.06391 10.1256C6.21433 10.0828 6.36638 10.0464 6.45089 10.0245C6.76103 10.0237 6.94581 10.1604 7.0004 10.3788C7.05741 10.608 6.97127 10.8288 6.74888 10.9287Z" fill="#D9D9D9" stroke="black" stroke-width="0.5" stroke-miterlimit="10"/>
<path d="M12.1763 5.82132C11.9248 6.29036 11.666 6.75577 11.4 7.21633C11.3179 7.35825 11.1909 7.46096 11.0098 7.45934C10.618 7.45368 10.3851 7.06793 10.5731 6.72463C10.8202 6.27217 11.0733 5.82253 11.328 5.3741C11.4416 5.17354 11.6082 5.09955 11.8258 5.13837C12.034 5.17516 12.2047 5.33124 12.2277 5.53706C12.2378 5.62965 12.22 5.74004 12.1763 5.82132Z" fill="#D9D9D9" stroke="black" stroke-width="0.5" stroke-miterlimit="10"/>
<path d="M7.28283 8.14114C7.28 8.37485 7.1575 8.5843 6.94522 8.63606C6.82957 8.66437 6.67592 8.63404 6.56715 8.57743C6.10497 8.33724 5.64886 8.08534 5.20003 7.8217C4.96349 7.68301 4.90041 7.39551 5.02657 7.1711C5.15434 6.94385 5.42284 6.85207 5.6707 6.98267C6.14218 7.23094 6.60677 7.49336 7.06935 7.75821C7.2137 7.8411 7.29133 7.97778 7.28283 8.14114Z" fill="#D9D9D9" stroke="black" stroke-width="0.5" stroke-miterlimit="10"/>
<path d="M8.42406 12.572C8.17337 13.0325 7.91781 13.4911 7.66024 13.9476C7.5454 14.151 7.33352 14.2318 7.10789 14.172C6.90369 14.1178 6.7561 13.9185 6.74316 13.6945C6.76783 13.6213 6.78279 13.5424 6.81918 13.4757C7.06947 13.0196 7.32219 12.5647 7.57895 12.1118C7.70754 11.8858 8.00312 11.8057 8.22591 11.9266C8.47014 12.0589 8.55709 12.3273 8.42406 12.572Z" fill="#D9D9D9" stroke="black" stroke-width="0.5" stroke-miterlimit="10"/>
<path d="M8.62834 7.17515C8.43142 7.17353 8.26039 7.06597 8.19812 6.86178C8.04164 6.34946 7.89039 5.83513 7.75736 5.31635C7.6862 5.03775 7.84349 4.80323 8.10511 4.7353C8.35338 4.67101 8.60408 4.80646 8.68535 5.07374C8.83496 5.56664 8.97811 6.06197 9.10872 6.56013C9.19929 6.90504 8.97608 7.17798 8.62834 7.17515Z" fill="#D9D9D9" stroke="black" stroke-width="0.5" stroke-miterlimit="10"/>
</svg>
