<svg width="335" height="74" viewBox="0 0 335 74" fill="none" xmlns="http://www.w3.org/2000/svg">
<path d="M0.810753 31.3641C0.810753 31.3641 16.5968 31.8011 23.2425 25.1061C29.8882 18.4111 27.7289 1.81243 27.7289 1.81243C27.7289 1.81243 30.401 18.4111 37.0467 25.1061C43.6924 31.8011 54.647 31.3641 54.647 31.3641C54.647 31.3641 43.6923 30.2318 37.0467 36.9268C30.401 43.6218 27.7289 58.4821 27.7289 58.4821C27.7289 58.4821 29.8882 43.6218 23.2425 36.9268C16.5968 30.2318 0.810753 31.3641 0.810753 31.3641Z" fill="white"/>
<path fill-rule="evenodd" clip-rule="evenodd" d="M0 20.0589L0.810753 31.3641L0.497267 42.6934L0 20.0589ZM3.81055 19.9586C3.6597 19.9577 3.51287 19.9574 3.37025 19.9576C2.41336 19.9585 1.62157 19.9803 1.04663 20.0035C0.758584 20.015 0.523296 20.027 0.347121 20.037C0.258983 20.042 0.185481 20.0466 0.127407 20.0503L0.0518997 20.0553L0.0229658 20.0573L0.0051783 20.0586C0.0051783 20.0586 -0.000168551 20.0592 0.810753 31.3641C0.497098 42.6937 0.502272 42.6936 0.502272 42.6936L0.519537 42.694L0.547762 42.6947L0.621807 42.6964C0.67889 42.6976 0.751357 42.6989 0.838421 42.7C1.01245 42.7023 1.2454 42.7041 1.53092 42.7034C2.10088 42.702 2.88657 42.6905 3.83638 42.6523C3.97702 42.6466 4.12177 42.6404 4.27042 42.6335C5.41029 42.6553 6.78419 42.7255 8.22955 42.8931C10.1062 43.1106 11.8369 43.4625 13.2284 43.9439C13.906 44.1783 14.4044 44.4099 14.7498 44.6071C15.0634 44.7862 15.1878 44.9009 15.1988 44.9111C15.2183 44.9336 15.5631 45.3319 15.9326 46.5103C16.3094 47.7119 16.5585 49.2384 16.6671 50.9376C16.7734 52.6002 16.729 54.1586 16.6531 55.3108C16.6159 55.8764 16.5729 56.3176 16.5426 56.5929C16.5276 56.7298 16.5159 56.8237 16.5101 56.8691C16.5072 56.8917 16.5061 56.8995 16.5061 56.8995L16.508 56.8858L16.5101 56.8691L16.5121 56.8574C16.5121 56.8574 16.5123 56.856 16.7096 56.884L38.7389 60.4641C38.8835 60.4905 38.8834 60.4914 38.8834 60.4914L38.8817 60.5005L38.8916 60.4487C38.9042 60.3834 38.9267 60.268 38.9595 60.108C39.0253 59.7874 39.1315 59.292 39.2799 58.6647C39.5794 57.3987 40.0369 55.6555 40.6612 53.7593C42.0647 49.4966 43.7346 46.2772 45.0907 44.9111C46.0179 43.977 47.7029 43.2028 50.0768 42.8345C50.8284 42.7178 51.5283 42.6619 52.1148 42.6389C52.1416 42.6405 52.1683 42.642 52.1948 42.6435C52.9778 42.6876 53.6314 42.7016 54.1226 42.7034C54.3687 42.7043 54.5757 42.7021 54.7393 42.699C54.8212 42.6974 54.8924 42.6956 54.9525 42.6938L55.0342 42.6912L55.0687 42.6899L55.0918 42.689C55.0918 42.689 55.0988 42.689 54.647 31.3641L55.0989 42.6887L55.8125 20.0899L54.647 31.3641C55.8123 20.0902 55.805 20.0892 55.805 20.0892L55.7973 20.0884L55.781 20.0867L55.7451 20.0832L55.6606 20.0751C55.5987 20.0694 55.5255 20.0629 55.4415 20.0561C55.2737 20.0425 55.0622 20.0272 54.8111 20.0128C54.3101 19.9841 53.6443 19.9587 52.8472 19.9576C52.816 19.9575 52.7846 19.9575 52.753 19.9576C52.1382 19.8999 51.3999 19.8024 50.603 19.6399C48.1187 19.1335 46.1948 18.2335 45.0907 17.1212C43.9127 15.9344 42.2125 12.5516 40.7501 7.686C40.1116 5.56165 39.6429 3.58905 39.3348 2.1452C39.1821 1.42948 39.0722 0.859375 39.0031 0.484465C38.9686 0.297386 38.9445 0.160059 38.9305 0.0787595L38.9172 0L38.9179 0.00432659L38.9184 0.007347C38.9184 0.007347 38.9185 0.00813521 38.7715 0.0321836L16.6835 3.24607C16.4893 3.27075 16.4892 3.26955 16.4892 3.26955L16.4876 3.2576L16.4863 3.24669L16.4856 3.24176L16.4922 3.29722C16.4997 3.3625 16.513 3.48253 16.5296 3.65113C16.563 3.98953 16.609 4.51603 16.6486 5.182C16.7289 6.53493 16.776 8.35626 16.6633 10.2883C16.548 12.2646 16.2819 14.0518 15.871 15.4536C15.5111 16.6815 15.1844 17.1218 15.1676 17.1515C14.554 17.728 12.205 18.8741 7.82807 19.5407C6.35825 19.7646 4.96426 19.8901 3.81055 19.9586ZM23.3118 25.0355C23.2889 25.059 23.2657 25.0828 23.2425 25.1061C18.4898 29.8941 9.06247 31.0341 4.07733 31.2953C2.09175 31.2719 0.810753 31.3641 0.810753 31.3641C0.810753 31.3641 2.09175 31.3993 4.07733 31.2953C9.06141 31.3538 18.486 32.1382 23.2396 36.9234L23.2425 36.9268C23.6011 37.288 23.9342 37.6727 24.2432 38.0779C29.6616 45.1818 27.7289 58.4821 27.7289 58.4821C27.7289 58.4821 30.0894 45.3553 35.8905 38.2181C36.1503 37.8985 36.417 37.5909 36.6907 37.2971C36.8081 37.171 36.9267 37.0477 37.0467 36.9268C41.7994 32.1388 48.756 31.3538 52.3334 31.2953C53.7583 31.3993 54.647 31.3641 54.647 31.3641C54.647 31.3641 53.7583 31.2719 52.3334 31.2953C48.756 31.0341 41.7994 29.8941 37.0467 25.1061C36.9113 24.9698 36.7778 24.829 36.6458 24.6847C36.4044 24.4208 36.1684 24.144 35.9379 23.8556C30.1022 16.5539 27.7289 1.81243 27.7289 1.81243C27.7289 1.81243 29.6703 16.7344 24.2068 23.9884C23.9281 24.3584 23.6302 24.7084 23.3118 25.0355Z" fill="white"/>
<path d="M183.145 73.8105H185.443V66.9935H187.244V65.1846H185.396V64.4658C185.396 63.7232 185.728 63.3678 186.628 63.3678C186.928 63.3678 187.165 63.3915 187.315 63.4073V61.78C186.984 61.7247 186.597 61.6931 186.131 61.6931C184.029 61.6931 183.145 62.57 183.145 64.2999V65.1846H181.739V66.9935H183.145V73.8105Z" fill="white"/>
<path d="M192.474 74.0001C195.152 74.0001 196.764 72.3018 196.764 69.4501C196.764 66.6222 195.129 64.9081 192.474 64.9081C189.82 64.9081 188.185 66.6301 188.185 69.4501C188.185 72.3018 189.797 74.0001 192.474 74.0001ZM192.474 72.1201C191.242 72.1201 190.547 71.1485 190.547 69.4501C190.547 67.7755 191.25 66.7881 192.474 66.7881C193.691 66.7881 194.402 67.7755 194.402 69.4501C194.402 71.1406 193.699 72.1201 192.474 72.1201Z" fill="white"/>
<path d="M198.479 73.8105H200.777V68.9841C200.777 67.7597 201.638 67.0172 202.894 67.0172C203.266 67.0172 203.803 67.0883 203.984 67.1594V65.0661C203.787 64.995 203.4 64.9555 203.084 64.9555C201.978 64.9555 201.078 65.619 200.848 66.488H200.706V65.0977H198.479V73.8105Z" fill="white"/>
<path d="M212.509 72.2149C211.712 72.2149 211.151 71.8199 211.151 71.1722C211.151 70.5481 211.633 70.1927 212.62 70.1216L214.381 70.011V70.6508C214.381 71.5355 213.576 72.2149 212.509 72.2149ZM211.751 73.9448C212.881 73.9448 213.829 73.4708 214.279 72.673H214.421V73.8105H216.649V67.8624C216.649 65.9982 215.345 64.9081 213.039 64.9081C210.851 64.9081 209.373 65.9192 209.223 67.5306H211.34C211.53 67.0093 212.083 66.7249 212.912 66.7249C213.86 66.7249 214.381 67.1357 214.381 67.8624V68.5733L212.272 68.6997C210.108 68.8261 208.899 69.7424 208.899 71.3223C208.899 72.9179 210.076 73.9448 211.751 73.9448Z" fill="white"/>
<path d="M218.822 73.8105H221.12V61.7721H218.822V73.8105Z" fill="white"/>
<path d="M223.428 73.8105H225.726V61.7721H223.428V73.8105Z" fill="white"/>
<path d="M110.492 3.47057H109.157C109.157 2.5808 108.95 1.95797 108.535 1.60206C108.119 1.24616 107.467 1.06821 106.577 1.06821H96.5228C95.6923 1.06821 95.2771 1.48343 95.2771 2.31388V43.243C95.2771 44.1328 95.4847 44.7556 95.8999 45.1116C96.3152 45.4675 96.9676 45.6454 97.8574 45.6454V46.7131H86.6464V45.6454C87.5361 45.6454 88.1886 45.4675 88.6039 45.1116C89.0191 44.7556 89.2267 44.1328 89.2267 43.243V2.31388C89.2267 1.48343 88.8115 1.06821 87.981 1.06821H77.9267C77.0369 1.06821 76.3844 1.24616 75.9692 1.60206C75.554 1.95797 75.3464 2.5808 75.3464 3.47057H74.0117V0.000488281H110.492V3.47057Z" fill="white"/>
<path d="M145.832 43.243C145.832 44.1328 146.039 44.7556 146.455 45.1116C146.87 45.4675 147.522 45.6454 148.412 45.6454V46.7131H137.201V45.6454C138.091 45.6454 138.743 45.4675 139.158 45.1116C139.574 44.7556 139.781 44.1328 139.781 43.243V24.647C139.781 20.6134 139.277 17.6771 138.269 15.8383C137.32 13.9401 135.54 12.9911 132.93 12.9911C130.973 12.9911 129.134 13.7622 127.414 15.3044C125.753 16.8467 124.388 19.1897 123.321 22.3336C122.312 25.4181 121.808 29.1848 121.808 33.6336V43.243C121.808 44.1328 122.016 44.7556 122.431 45.1116C122.846 45.4675 123.499 45.6454 124.388 45.6454V46.7131H113.177V45.6454C114.067 45.6454 114.72 45.4675 115.135 45.1116C115.55 44.7556 115.758 44.1328 115.758 43.243V5.16112C115.758 4.27136 115.55 3.64852 115.135 3.29262C114.72 2.93671 114.067 2.75876 113.177 2.75876V1.69104L120.74 0.000488281H121.808V19.9312C121.808 20.643 121.927 21.0286 122.164 21.0879C122.461 21.0879 122.698 20.7913 122.876 20.1981C124.952 13.7325 128.867 10.4997 134.621 10.4997C138.536 10.4997 141.353 11.6564 143.073 13.9698C144.853 16.2832 145.772 19.7533 145.832 24.38V43.243Z" fill="white"/>
<path d="M188.932 29.7186H160.726C160.904 34.2861 162.15 37.9934 164.463 40.8407C166.836 43.6879 169.98 45.1116 173.895 45.1116C176.445 45.1116 178.818 44.3108 181.013 42.7092C183.267 41.0483 184.868 38.8832 185.818 36.2139L187.419 37.1037C186.233 40.1289 184.275 42.5609 181.547 44.3997C178.877 46.2386 175.912 47.158 172.649 47.158C169.268 47.158 166.213 46.3572 163.484 44.7556C160.756 43.0948 158.62 40.8703 157.078 38.0824C155.536 35.2352 154.765 32.1506 154.765 28.8289C154.765 25.5071 155.506 22.4522 156.989 19.6643C158.531 16.8764 160.608 14.6519 163.218 12.9911C165.828 11.3302 168.704 10.4997 171.848 10.4997C174.933 10.4997 177.78 11.3302 180.39 12.9911C183 14.5926 185.076 16.7874 186.618 19.5753C188.161 22.3632 188.932 25.3884 188.932 28.6509V29.7186ZM182.881 28.6509C182.881 25.6257 182.377 22.8081 181.369 20.1981C180.42 17.5289 179.085 15.4231 177.365 13.8808C175.704 12.3386 173.865 11.5674 171.848 11.5674C169.831 11.5674 167.963 12.3386 166.243 13.8808C164.582 15.4231 163.247 17.4992 162.239 20.1092C161.23 22.7191 160.726 25.5664 160.726 28.6509H182.881Z" fill="white"/>
<path d="M216.646 10.4997C217.832 10.4997 218.663 10.559 219.137 10.6777V14.6816C218.781 14.1477 218.218 13.7325 217.447 13.4359C216.735 13.1393 215.904 12.9911 214.955 12.9911C212.998 12.9911 211.159 13.7622 209.439 15.3044C207.778 16.8467 206.414 19.1897 205.346 22.3336C204.337 25.4181 203.833 29.1848 203.833 33.6336V43.243C203.833 44.1328 204.041 44.7556 204.456 45.1116C204.871 45.4675 205.524 45.6454 206.414 45.6454V46.7131H195.203V45.6454C196.092 45.6454 196.745 45.4675 197.16 45.1116C197.575 44.7556 197.783 44.1328 197.783 43.243V16.2832C197.783 15.3934 197.575 14.7706 197.16 14.4147C196.745 14.0588 196.092 13.8808 195.203 13.8808V12.8131L202.766 11.1225H203.833V19.9312C203.833 20.643 203.952 21.0286 204.189 21.0879C204.486 21.0879 204.723 20.7913 204.901 20.1981C206.977 13.7325 210.892 10.4997 216.646 10.4997Z" fill="white"/>
<path d="M255.116 43.599C254.641 44.4887 254.018 45.3192 253.247 46.0903C252.476 46.8614 251.29 47.247 249.688 47.247C247.731 47.247 246.426 46.7428 245.773 45.7344C245.121 44.6667 244.794 43.51 244.794 42.2643C244.735 42.0864 244.646 41.9974 244.527 41.9974C244.409 41.9974 244.201 42.1753 243.905 42.5312C243.667 42.8278 243.46 43.0354 243.282 43.1541C242.214 44.4591 240.968 45.4675 239.545 46.1793C238.121 46.8911 236.549 47.247 234.829 47.247C231.448 47.247 228.63 46.4462 226.376 44.8446C224.122 43.1837 222.995 41.078 222.995 38.5273C222.995 36.6884 223.47 35.1758 224.419 33.9895C225.427 32.8031 226.643 31.8837 228.067 31.2312C229.49 30.5787 231.448 29.8669 233.939 29.0958C236.905 28.206 239.219 27.3459 240.879 26.5155C242.6 25.685 243.905 24.469 244.794 22.8674V20.2871C244.794 18.0331 244.201 16.0459 243.015 14.3257C241.888 12.5462 240.138 11.6564 237.765 11.6564C235.986 11.6564 234.473 12.1013 233.227 12.9911C231.982 13.8215 231.033 14.7113 230.38 15.6603C229.787 16.6094 229.075 17.8848 228.245 19.4863L224.953 16.0163C227.563 12.3386 231.863 10.4997 237.854 10.4997C241.71 10.4997 244.824 11.3895 247.197 13.169C249.569 14.8892 250.785 17.2323 250.845 20.1981V41.8194C250.845 42.8278 250.934 43.6286 251.112 44.2218C251.29 44.7556 251.675 45.0226 252.268 45.0226C252.743 45.0226 253.158 44.8446 253.514 44.4887C253.929 44.0735 254.196 43.6879 254.315 43.332L255.116 43.599ZM228.868 39.2391C228.868 41.1373 229.52 42.6499 230.825 43.7769C232.13 44.9039 233.761 45.4675 235.719 45.4675C237.973 45.4675 239.901 44.815 241.502 43.51C243.104 42.205 244.201 40.4848 244.794 38.3493V24.558C244.083 25.6257 243.133 26.5155 241.947 27.2273C240.82 27.9391 239.308 28.7399 237.409 29.6297C235.511 30.5194 233.999 31.3202 232.872 32.032C231.745 32.6845 230.795 33.6039 230.024 34.7903C229.253 35.9766 228.868 37.4596 228.868 39.2391Z" fill="white"/>
<path d="M282.737 10.5887C285.88 10.5887 288.728 11.4191 291.278 13.08C293.829 14.6816 295.816 16.906 297.24 19.7533C298.723 22.5412 299.464 25.596 299.464 28.9178C299.464 32.2396 298.723 35.3241 297.24 38.1714C295.816 40.9593 293.829 43.1837 291.278 44.8446C288.728 46.4462 285.88 47.247 282.737 47.247C279.237 47.247 276.301 46.0606 273.928 43.6879V43.7769C273.691 43.5396 273.394 43.243 273.038 42.8871C272.742 42.4719 272.445 42.2643 272.148 42.2643C271.615 42.2643 271.348 42.8278 271.348 43.9549V56.7675C271.348 57.6572 271.555 58.2801 271.97 58.636C272.386 58.9919 273.038 59.1698 273.928 59.1698V60.2375H262.717V59.1698C263.607 59.1698 264.259 58.9919 264.674 58.636C265.09 58.2801 265.297 57.6572 265.297 56.7675V16.2832C265.297 15.3934 265.09 14.7706 264.674 14.4147C264.259 14.0588 263.607 13.8808 262.717 13.8808V12.8131L270.28 11.1225H271.348V13.8808C271.348 14.8892 271.585 15.4231 272.059 15.4824H272.148C272.445 15.4824 272.742 15.3044 273.038 14.9485C273.394 14.5333 273.691 14.2367 273.928 14.0588V14.1477C276.301 11.775 279.237 10.5887 282.737 10.5887ZM282.559 46.1793C284.635 46.1793 286.503 45.4081 288.164 43.8659C289.825 42.2643 291.13 40.1585 292.079 37.5485C293.028 34.8793 293.503 32.0024 293.503 28.9178C293.503 25.8333 293.028 22.9861 292.079 20.3761C291.13 17.7068 289.825 15.601 288.164 14.0588C286.503 12.4572 284.635 11.6564 282.559 11.6564C280.542 11.6564 278.673 12.3089 276.953 13.6139C275.292 14.9189 273.928 16.8764 272.86 19.4863C271.852 22.0963 271.348 25.2401 271.348 28.9178C271.348 32.5955 271.852 35.7394 272.86 38.3493C273.928 40.9593 275.292 42.9168 276.953 44.2218C278.673 45.5268 280.542 46.1793 282.559 46.1793Z" fill="white"/>
<path d="M334.654 12.1903C333.823 12.1903 333.26 12.2792 332.963 12.4572C332.667 12.6351 332.34 13.1097 331.984 13.8808L317.214 54.3651C316.265 56.7971 314.99 58.9029 313.388 60.6824C311.787 62.462 310.037 63.7669 308.139 64.5974L305.914 59.8816L307.249 59.9706C309.444 59.9706 311.312 59.4664 312.854 58.458C314.456 57.4496 315.613 55.9667 316.324 54.0092L318.994 46.7131H316.947L304.758 13.4359C304.461 12.8428 304.164 12.4869 303.868 12.3682C303.571 12.2496 303.037 12.1903 302.266 12.1903V11.1225H312.676V12.1903H312.232C311.698 12.1903 311.312 12.2496 311.075 12.3682C310.838 12.4275 310.719 12.6055 310.719 12.9021C310.719 13.0207 310.778 13.3173 310.897 13.7918L319.528 37.4596V37.3706C320.062 38.6756 320.536 39.3281 320.951 39.3281C321.367 39.3281 321.811 38.8239 322.286 37.8155L322.375 37.4596L322.464 37.1926L331.006 13.7918L331.184 12.9911C331.184 12.5758 331.035 12.3386 330.739 12.2792C330.501 12.2199 329.968 12.1903 329.137 12.1903V11.1225H334.654V12.1903Z" fill="white"/>
<path d="M111.717 56.6216L114.052 58.9566L116.387 56.6216L114.052 54.2866L111.717 56.6216ZM297.171 56.6216L294.836 54.2866L292.501 56.6216L294.836 58.9566L297.171 56.6216ZM114.052 57.026H294.836V56.2171H114.052V57.026Z" fill="white"/>
</svg>
