<svg width="26" height="25" viewBox="0 0 26 25" fill="none" xmlns="http://www.w3.org/2000/svg">
<path d="M12.9056 22.8605C18.5472 22.8605 23.1207 18.2871 23.1207 12.6454C23.1207 7.00374 18.5472 2.43027 12.9056 2.43027C7.2639 2.43027 2.69043 7.00374 2.69043 12.6454C2.69043 18.2871 7.2639 22.8605 12.9056 22.8605Z" stroke="white" stroke-width="2.04303" stroke-linecap="round" stroke-linejoin="round"/>
<path d="M14.7783 7.84429C14.7783 7.55824 14.7783 7.41521 14.7227 7.30596C14.6737 7.20985 14.5956 7.13172 14.4995 7.08275C14.3902 7.02708 14.2472 7.02708 13.9611 7.02708H11.85C11.564 7.02708 11.4209 7.02708 11.3117 7.08275C11.2156 7.13172 11.1374 7.20985 11.0885 7.30596C11.0328 7.41521 11.0328 7.55824 11.0328 7.84429V9.95542C11.0328 10.2415 11.0328 10.3845 10.9771 10.4938C10.9282 10.5899 10.85 10.668 10.7539 10.717C10.6447 10.7726 10.5016 10.7726 10.2156 10.7726H8.10445C7.8184 10.7726 7.67538 10.7726 7.56612 10.8283C7.47002 10.8773 7.39188 10.9554 7.34291 11.0515C7.28724 11.1608 7.28724 11.3038 7.28724 11.5898V13.701C7.28724 13.987 7.28724 14.13 7.34291 14.2393C7.39188 14.3354 7.47002 14.4135 7.56612 14.4625C7.67538 14.5182 7.8184 14.5182 8.10445 14.5182H10.2156C10.5016 14.5182 10.6447 14.5182 10.7539 14.5739C10.85 14.6228 10.9282 14.701 10.9771 14.7971C11.0328 14.9063 11.0328 15.0493 11.0328 15.3354V17.4465C11.0328 17.7326 11.0328 17.8756 11.0885 17.9849C11.1374 18.081 11.2156 18.1591 11.3117 18.2081C11.4209 18.2637 11.564 18.2637 11.85 18.2637H13.9611C14.2472 18.2637 14.3902 18.2637 14.4995 18.2081C14.5956 18.1591 14.6737 18.081 14.7227 17.9849C14.7783 17.8756 14.7783 17.7326 14.7783 17.4465V15.3354C14.7783 15.0493 14.7783 14.9063 14.834 14.7971C14.883 14.701 14.9611 14.6228 15.0572 14.5739C15.1665 14.5182 15.3095 14.5182 15.5956 14.5182H17.7067C17.9927 14.5182 18.1358 14.5182 18.245 14.4625C18.3411 14.4135 18.4193 14.3354 18.4682 14.2393C18.5239 14.13 18.5239 13.987 18.5239 13.701V11.5898C18.5239 11.3038 18.5239 11.1608 18.4682 11.0515C18.4193 10.9554 18.3411 10.8773 18.245 10.8283C18.1358 10.7726 17.9927 10.7726 17.7067 10.7726H15.5956C15.3095 10.7726 15.1665 10.7726 15.0572 10.717C14.9611 10.668 14.883 10.5899 14.834 10.4938C14.7783 10.3845 14.7783 10.2415 14.7783 9.95542V7.84429Z" stroke="white" stroke-width="2.04303" stroke-linecap="round" stroke-linejoin="round"/>
</svg>
