<svg width="26" height="26" viewBox="0 0 26 26" fill="none" xmlns="http://www.w3.org/2000/svg">
<path d="M5.58408 20.4184C6.22307 18.9129 7.71498 17.8571 9.4535 17.8571H15.756C17.4945 17.8571 18.9864 18.913 19.6254 20.4184M16.8064 9.97895C16.8064 12.2995 14.9253 14.1806 12.6047 14.1806C10.2842 14.1806 8.40308 12.2995 8.40308 9.97895C8.40308 7.65843 10.2842 5.77729 12.6047 5.77729C14.9253 5.77729 16.8064 7.65843 16.8064 9.97895ZM23.1089 12.605C23.1089 18.4063 18.406 23.1091 12.6047 23.1091C6.80346 23.1091 2.10059 18.4063 2.10059 12.605C2.10059 6.8037 6.80346 2.10083 12.6047 2.10083C18.406 2.10083 23.1089 6.8037 23.1089 12.605Z" stroke="#7D12A3" stroke-width="2.10083" stroke-linecap="round" stroke-linejoin="round"/>
</svg>
