<svg width="22" height="22" viewBox="0 0 22 22" fill="none" xmlns="http://www.w3.org/2000/svg">
<path d="M11 1C16.523 1 21 5.47697 21 11C21 16.523 16.523 21 11 21C5.47697 21 1 16.523 1 11C1 5.47697 5.47697 1 11 1ZM5.87687 15.1114C5.95693 15.2946 6.02285 15.4855 6.11908 15.6597C6.54729 16.4329 7.19426 16.9039 8.07574 17.0301C8.25164 17.0556 8.43196 17.0479 8.61028 17.0556C8.74857 17.0357 8.88687 17.0155 9.02516 16.9957C9.18973 16.9444 9.35631 16.8995 9.51764 16.8412C10.3292 16.5485 11.015 16.0552 11.653 15.4891C12.4176 14.8106 13.0804 14.0391 13.6954 13.2255C14.4483 12.2292 15.1309 11.1896 15.6246 10.0364C15.8991 9.39594 16.1065 8.73563 16.1595 8.0357C16.1749 7.83191 16.17 7.6265 16.1749 7.4219C16.1547 7.28361 16.1349 7.14532 16.1146 7.00704C16.1029 6.97671 16.0888 6.94679 16.0803 6.91565C15.8077 5.90397 15.143 5.29057 14.145 5.02855C13.9283 4.97154 13.6982 4.96669 13.4742 4.93798C13.3942 4.9497 13.3141 4.96102 13.234 4.97275C12.9 5.09971 12.7662 5.38073 12.6938 5.69855C12.5491 6.33136 12.412 6.96579 12.2757 7.60062C12.2551 7.69645 12.2494 7.79714 12.2482 7.89539C12.2438 8.19947 12.3861 8.40528 12.6728 8.50839C12.873 8.58036 13.0747 8.6491 13.2785 8.71097C13.4754 8.77041 13.585 8.90667 13.6315 9.09712C13.6942 9.35186 13.6861 9.60337 13.6004 9.85569C13.1123 11.2863 12.2664 12.4714 11.1266 13.4508C10.8945 13.6501 10.632 13.8175 10.3688 13.9744C10.201 14.0739 9.99963 14.0949 9.8015 14.0747C9.65998 14.0601 9.54394 13.9974 9.46145 13.8765C9.34945 13.7128 9.23339 13.5523 9.12058 13.3893C8.89212 13.059 8.62606 12.9728 8.25284 13.1317C8.05107 13.2179 7.86021 13.3299 7.66693 13.435C7.30301 13.6331 6.94031 13.8337 6.57842 14.0355C6.48542 14.0868 6.39445 14.1426 6.3059 14.2012C6.06248 14.3626 5.86718 14.5583 5.8417 14.8713C5.85343 14.9513 5.86514 15.0314 5.87687 15.1114Z" stroke="black" stroke-miterlimit="10"/>
</svg>
