<svg width="25" height="25" viewBox="0 0 25 25" fill="none" xmlns="http://www.w3.org/2000/svg">
<path d="M21.7818 9.62634L21.7818 3.49725M21.7818 3.49725H15.6527M21.7818 3.49725L13.6097 11.6694M10.5451 5.54028H8.2978C6.58149 5.54028 5.72334 5.54028 5.0678 5.8743C4.49117 6.1681 4.02235 6.63692 3.72855 7.21355C3.39453 7.86909 3.39453 8.72724 3.39453 10.4435V16.9812C3.39453 18.6975 3.39453 19.5557 3.72855 20.2112C4.02235 20.7879 4.49117 21.2567 5.0678 21.5505C5.72334 21.8845 6.58149 21.8845 8.2978 21.8845H14.8355C16.5518 21.8845 17.4099 21.8845 18.0655 21.5505C18.6421 21.2567 19.1109 20.7879 19.4047 20.2112C19.7388 19.5557 19.7388 18.6975 19.7388 16.9812V14.7339" stroke="#7D12A3" stroke-width="2.14603" stroke-linecap="round" stroke-linejoin="round"/>
</svg>
