<svg width="15" height="14" viewBox="0 0 15 14" fill="none" xmlns="http://www.w3.org/2000/svg">
<path opacity="0.5" d="M6.86477 0.38994C6.99286 -0.00428092 7.55058 -0.00427933 7.67867 0.389941L9.01041 4.48861C9.06769 4.66491 9.23198 4.78427 9.41736 4.78427L13.7269 4.78427C14.1415 4.78427 14.3138 5.31469 13.9785 5.55833L10.4919 8.09145C10.342 8.20041 10.2792 8.39355 10.3365 8.56985L11.6682 12.6685C11.7963 13.0627 11.3451 13.3906 11.0098 13.1469L7.52323 10.6138C7.37326 10.5048 7.17018 10.5048 7.02021 10.6138L3.53368 13.1469C3.19833 13.3906 2.74713 13.0627 2.87522 12.6685L4.20696 8.56985C4.26424 8.39354 4.20149 8.20041 4.05152 8.09145L0.564985 5.55833C0.229641 5.31469 0.401986 4.78427 0.816495 4.78427L5.12609 4.78427C5.31146 4.78427 5.47575 4.66491 5.53303 4.48861L6.86477 0.38994Z" fill="#140A38"/>
</svg>
