<svg width="15" height="14" viewBox="0 0 15 14" fill="none" xmlns="http://www.w3.org/2000/svg">
<path opacity="0.5" d="M7.1763 0.38994C7.30439 -0.00428092 7.8621 -0.00427933 7.99019 0.389941L9.32193 4.48861C9.37921 4.66491 9.5435 4.78427 9.72888 4.78427L14.0385 4.78427C14.453 4.78427 14.6253 5.31469 14.29 5.55833L10.8034 8.09145C10.6535 8.20041 10.5907 8.39355 10.648 8.56985L11.9797 12.6685C12.1078 13.0627 11.6566 13.3906 11.3213 13.1469L7.83475 10.6138C7.68478 10.5048 7.48171 10.5048 7.33174 10.6138L3.8452 13.1469C3.50986 13.3906 3.05866 13.0627 3.18675 12.6685L4.51848 8.56985C4.57577 8.39354 4.51301 8.20041 4.36304 8.09145L0.876509 5.55833C0.541164 5.31469 0.71351 4.78427 1.12802 4.78427L5.43761 4.78427C5.62298 4.78427 5.78727 4.66491 5.84456 4.48861L7.1763 0.38994Z" fill="#FF7C1D"/>
</svg>
